<svg width="24" height="24" viewBox="0 0 24 24" fill="none" xmlns="http://www.w3.org/2000/svg">
<path d="M14.2917 20.9583H10.5417V14.9167H9.74999C9.26666 14.9167 8.875 14.525 8.875 14.0417V12.4583C8.875 11.975 9.26666 11.5833 9.74999 11.5833H10.5417V9.5C10.5417 7.775 11.9417 6.375 13.6667 6.375H15.9167C16.4 6.375 16.7917 6.76666 16.7917 7.24999V9.25001C16.7917 9.73334 16.4 10.125 15.9167 10.125H14.2917V11.5833H15.8583C16.125 11.5833 16.3667 11.7 16.5333 11.9C16.7 12.1 16.7667 12.3667 16.7167 12.625L16.4 14.2083C16.3167 14.6167 15.9583 14.9083 15.5417 14.9083H14.2917V20.9583ZM11.7917 19.7083H13.0417V13.6667H15.2417L15.4083 12.8333H13.05V9.74999C13.05 9.26666 13.4417 8.875 13.925 8.875H15.55V7.625H13.6667C12.6333 7.625 11.7917 8.46667 11.7917 9.5V12.8333H10.125V13.6667H11.7917V19.7083Z" fill="#EEF2FE"/>
<path d="M14.5003 20.9587H9.50033C4.97533 20.9587 3.04199 19.0253 3.04199 14.5003V9.50033C3.04199 4.97533 4.97533 3.04199 9.50033 3.04199H14.5003C19.0253 3.04199 20.9587 4.97533 20.9587 9.50033V14.5003C20.9587 19.0253 19.0253 20.9587 14.5003 20.9587ZM9.50033 4.29199C5.65866 4.29199 4.29199 5.65866 4.29199 9.50033V14.5003C4.29199 18.342 5.65866 19.7087 9.50033 19.7087H14.5003C18.342 19.7087 19.7087 18.342 19.7087 14.5003V9.50033C19.7087 5.65866 18.342 4.29199 14.5003 4.29199H9.50033Z" fill="#EEF2FE"/>
</svg>
