<svg width="24" height="24" viewBox="0 0 24 24" fill="none" xmlns="http://www.w3.org/2000/svg">
<path d="M14.5003 20.9587H9.50033C4.97533 20.9587 3.04199 19.0253 3.04199 14.5003V9.50033C3.04199 4.97533 4.97533 3.04199 9.50033 3.04199H14.5003C19.0253 3.04199 20.9587 4.97533 20.9587 9.50033V14.5003C20.9587 19.0253 19.0253 20.9587 14.5003 20.9587ZM9.50033 4.29199C5.65866 4.29199 4.29199 5.65866 4.29199 9.50033V14.5003C4.29199 18.342 5.65866 19.7087 9.50033 19.7087H14.5003C18.342 19.7087 19.7087 18.342 19.7087 14.5003V9.50033C19.7087 5.65866 18.342 4.29199 14.5003 4.29199H9.50033Z" fill="#EEF2FE"/>
<path d="M11.9997 15.5413C10.0497 15.5413 8.45801 13.9497 8.45801 11.9997C8.45801 10.0497 10.0497 8.45801 11.9997 8.45801C13.9497 8.45801 15.5413 10.0497 15.5413 11.9997C15.5413 13.9497 13.9497 15.5413 11.9997 15.5413ZM11.9997 9.70801C10.733 9.70801 9.70801 10.733 9.70801 11.9997C9.70801 13.2663 10.733 14.2913 11.9997 14.2913C13.2663 14.2913 14.2913 13.2663 14.2913 11.9997C14.2913 10.733 13.2663 9.70801 11.9997 9.70801Z" fill="#EEF2FE"/>
<path d="M16.1663 8.25041C16.058 8.25041 15.9497 8.22541 15.8497 8.18374C15.7497 8.14208 15.658 8.08374 15.5747 8.00874C15.4997 7.92541 15.433 7.83374 15.3913 7.73374C15.3497 7.63374 15.333 7.52541 15.333 7.41708C15.333 7.30874 15.3497 7.20041 15.3913 7.10041C15.4413 6.99207 15.4997 6.90874 15.5747 6.82541C15.6163 6.79208 15.658 6.75041 15.6997 6.72541C15.7497 6.69208 15.7997 6.66708 15.8497 6.65041C15.8997 6.62541 15.9497 6.60874 16.008 6.60041C16.2747 6.54208 16.558 6.63374 16.758 6.82541C16.833 6.90874 16.8913 6.99207 16.933 7.10041C16.9747 7.20041 16.9997 7.30874 16.9997 7.41708C16.9997 7.52541 16.9747 7.63374 16.933 7.73374C16.8913 7.83374 16.833 7.92541 16.758 8.00874C16.6747 8.08374 16.583 8.14208 16.483 8.18374C16.383 8.22541 16.2747 8.25041 16.1663 8.25041Z" fill="#EEF2FE"/>
</svg>
